<?xml version="1.0" standalone="no"?>
<!DOCTYPE svg PUBLIC "-//W3C//DTD SVG 20010904//EN"
 "http://www.w3.org/TR/2001/REC-SVG-20010904/DTD/svg10.dtd">
<svg version="1.0" xmlns="http://www.w3.org/2000/svg"
 width="674.000000pt" height="674.000000pt" viewBox="0 0 674.000000 674.000000"
 preserveAspectRatio="xMidYMid meet">
<metadata>
Created by potrace 1.14, written by Peter Selinger 2001-2017
</metadata>
<g transform="translate(0.000000,674.000000) scale(0.100000,-0.100000)"
fill="#000000" stroke="none">
<path d="M3176 6408 c-210 -15 -475 -62 -684 -122 -350 -101 -623 -266 -804
-486 -171 -208 -306 -540 -362 -890 -17 -109 -24 -209 -31 -470 -12 -434 -24
-742 -29 -747 -1 -2 -19 13 -39 32 -41 38 -78 60 -122 69 -49 11 -131 -45
-177 -119 -54 -89 -61 -131 -56 -360 4 -170 9 -219 32 -325 111 -509 186 -658
317 -636 106 19 101 22 127 -79 67 -267 198 -567 330 -755 116 -166 313 -374
492 -521 378 -308 712 -428 1205 -432 252 -1 372 16 564 80 357 118 837 470
1075 787 130 172 244 381 316 576 24 63 46 118 49 123 4 4 29 0 57 -8 81 -25
109 -20 154 25 21 21 50 56 63 77 38 61 103 222 166 411 94 281 124 433 116
600 -5 104 -40 187 -98 238 -35 29 -48 34 -94 34 -41 0 -63 -7 -101 -30 -60
-37 -65 -37 -58 -2 3 15 8 79 11 142 10 209 22 362 35 470 60 488 41 899 -55
1187 -50 148 -141 316 -227 419 -172 206 -330 337 -539 448 -226 120 -475 185
-954 251 -101 14 -172 17 -360 19 -115 1 -259 -2 -319 -6z"/>
</g>
</svg>
